<?xml version="1.0" encoding="UTF-8"?>
<svg xmlns="http://www.w3.org/2000/svg" viewBox="0 0 600 692.82" width="600" height="692.82" role="img" aria-labelledby="logo-title logo-desc">
  <title id="logo-title">obrasgovr</title>
  <desc id="logo-desc">Hexagonal logo: a white two-tier arched viaduct on a navy blueprint field, above the obrasgovr wordmark.</desc>
  <defs>
    <clipPath id="obrasgovr-hex"><path d="M300.00 0.00L600.00 173.21L600.00 519.62L300.00 692.82L0.00 519.62L0.00 173.21Z"/></clipPath>
  </defs>

  <path d="M300.00 0.00L600.00 173.21L600.00 519.62L300.00 692.82L0.00 519.62L0.00 173.21Z" fill="#0A2540"/>

  <!-- malha de projeto -->
  <g clip-path="url(#obrasgovr-hex)" fill="none" stroke="#4FC3E8" stroke-width="1.5" opacity="0.12">
    <path d="M0 48H600M0 96H600M0 144H600M0 192H600M0 240H600M0 288H600M0 336H600M0 384H600M0 432H600M0 480H600M0 528H600M0 576H600M0 624H600M0 672H600M48 0V693M96 0V693M144 0V693M192 0V693M240 0V693M288 0V693M336 0V693M384 0V693M432 0V693M480 0V693M528 0V693"/>
  </g>

  <!-- viaduto de dois niveis -->
  <g fill="#FFFFFF" fill-rule="evenodd">
    <path d="M104.0 336.0H496.0V470.0H104.0ZM132.0 470.0V408.0A46.7 46.7 0 0 1 225.3 408.0V470.0ZM253.3 470.0V408.0A46.7 46.7 0 0 1 346.7 408.0V470.0ZM374.7 470.0V408.0A46.7 46.7 0 0 1 468.0 408.0V470.0Z"/>
    <path d="M104.0 246.0H496.0V336.0H104.0ZM120.0 336.0V296.0A23.3 23.3 0 0 1 166.7 296.0V336.0ZM182.7 336.0V296.0A23.3 23.3 0 0 1 229.3 296.0V336.0ZM245.3 336.0V296.0A23.3 23.3 0 0 1 292.0 296.0V336.0ZM308.0 336.0V296.0A23.3 23.3 0 0 1 354.7 296.0V336.0ZM370.7 336.0V296.0A23.3 23.3 0 0 1 417.3 296.0V336.0ZM433.3 336.0V296.0A23.3 23.3 0 0 1 480.0 296.0V336.0Z"/>
    <path d="M95 220H505V246H95Z"/>
  </g>
  <path d="M95 475H505" stroke="#F5B841" stroke-width="8" stroke-linecap="round"/>

  <!-- wordmark (contornos: nao depende de fontes instaladas) -->
  <g transform="translate(132.38 562) scale(0.06400)" fill-rule="evenodd">
    <path fill="#FFFFFF" d="M306 7L286 5L266 3L247 -1L228 -6L210 -12L192 -20L176 -28L159 -37L144 -47L130 -59L116 -70L103 -83L92 -97L81 -111L71 -126L62 -142L54 -159L47 -176L42 -193L38 -211L35 -230L33 -249L32 -269L33 -289L35 -309L38 -327L42 -346L47 -363L54 -380L62 -397L71 -413L81 -428L92 -442L104 -455L116 -468L130 -480L144 -491L159 -501L176 -510L192 -518L210 -526L228 -532L247 -537L266 -541L286 -543L306 -545L328 -546L349 -545L369 -543L389 -541L409 -537L427 -532L446 -526L463 -518L480 -510L496 -501L512 -491L526 -480L540 -468L552 -456L564 -442L575 -428L585 -413L594 -397L601 -380L608 -363L613 -346L617 -328L620 -309L622 -289L623 -269L622 -249L620 -230L617 -211L613 -193L608 -176L601 -158L594 -142L585 -126L575 -111L564 -97L552 -83L540 -70L526 -58L512 -47L496 -37L480 -28L463 -20L445 -12L427 -6L408 -1L389 3L369 5L349 7L328 8ZM347 -121L365 -125L382 -130L398 -138L413 -148L426 -160L437 -174L447 -189L455 -207L460 -226L464 -247L465 -269L464 -292L460 -313L455 -332L447 -349L437 -365L426 -378L413 -390L398 -400L382 -408L365 -413L347 -417L328 -418L309 -417L291 -413L274 -408L258 -400L243 -390L230 -378L219 -365L209 -349L201 -332L195 -313L191 -292L190 -269L191 -247L195 -226L201 -207L209 -189L219 -174L230 -160L243 -148L258 -138L274 -130L291 -125L309 -121L328 -120ZM1017 7L1001 6L985 3L969 0L954 -4L940 -9L926 -15L913 -22L901 -30L889 -39L878 -49L868 -60L859 -72L850 -85L842 -98L835 -113L829 -129L823 -146L819 -164L815 -183L812 -203L810 -224L808 -246L808 -269L808 -292L810 -314L812 -335L815 -355L819 -374L824 -392L830 -409L836 -425L844 -440L852 -453L861 -466L870 -478L881 -489L892 -499L903 -508L916 -516L929 -523L943 -529L957 -534L971 -538L986 -541L1002 -544L1018 -545L1035 -546L1053 -545L1072 -543L1090 -541L1107 -537L1124 -532L1140 -526L1156 -520L1171 -512L1186 -503L1200 -493L1213 -482L1226 -471L1237 -458L1248 -445L1258 -431L1267 -416L1276 -400L1283 -383L1289 -366L1294 -348L1298 -329L1301 -310L1302 -290L1303 -269L1302 -248L1301 -228L1298 -209L1294 -190L1289 -172L1283 -155L1276 -139L1267 -123L1258 -108L1248 -94L1237 -80L1226 -68L1213 -56L1200 -45L1186 -36L1171 -27L1156 -19L1140 -12L1124 -6L1107 -1L1090 3L1072 5L1053 7L1035 8ZM717 -742L873 -742L873 -429L863 -270L866 -110L866 -0L717 -0ZM1027 -121L1045 -125L1062 -130L1078 -138L1092 -148L1105 -160L1117 -174L1127 -189L1135 -207L1140 -226L1144 -247L1145 -269L1145 -281L1144 -292L1142 -302L1140 -313L1138 -322L1135 -332L1131 -341L1127 -349L1117 -365L1105 -378L1092 -390L1078 -400L1062 -408L1045 -413L1027 -417L1008 -418L989 -417L971 -413L954 -408L938 -400L923 -390L910 -378L899 -365L889 -349L885 -341L881 -332L878 -322L875 -313L873 -302L872 -292L871 -281L871 -269L872 -247L875 -226L881 -207L889 -189L899 -174L910 -160L923 -148L938 -138L954 -130L971 -125L989 -121L1008 -120ZM1397 -538L1546 -538L1546 -386L1525 -430L1532 -444L1539 -457L1547 -469L1556 -480L1567 -490L1577 -500L1589 -508L1602 -516L1616 -523L1630 -529L1645 -534L1661 -538L1677 -541L1695 -544L1713 -545L1731 -546L1731 -402L1722 -403L1713 -404L1696 -404L1681 -404L1666 -402L1651 -399L1638 -395L1625 -390L1614 -384L1603 -376L1592 -368L1583 -358L1575 -347L1569 -334L1563 -321L1559 -306L1556 -290L1554 -272L1553 -254L1553 -0L1397 -0ZM2148 -105L2138 -128L2138 -316L2138 -328L2136 -340L2134 -351L2131 -361L2126 -370L2121 -379L2115 -387L2108 -394L2099 -400L2090 -406L2080 -411L2069 -415L2057 -418L2043 -420L2029 -421L2014 -422L1992 -421L1971 -418L1950 -414L1930 -408L1910 -401L1891 -393L1874 -383L1859 -372L1803 -481L1814 -488L1826 -495L1839 -502L1852 -509L1865 -514L1879 -520L1894 -525L1909 -529L1940 -536L1972 -541L2003 -544L2035 -546L2065 -545L2093 -542L2120 -537L2145 -531L2168 -523L2189 -513L2208 -501L2226 -488L2235 -480L2242 -472L2249 -464L2256 -455L2262 -445L2268 -435L2273 -425L2277 -414L2281 -402L2285 -390L2288 -378L2290 -364L2292 -351L2293 -337L2294 -322L2294 -307L2294 -0L2148 -0ZM1969 7L1954 6L1939 5L1926 2L1913 -1L1900 -4L1888 -9L1876 -14L1865 -19L1855 -25L1846 -32L1837 -39L1828 -46L1821 -54L1814 -63L1807 -72L1802 -81L1797 -91L1793 -101L1789 -111L1787 -122L1785 -133L1784 -144L1783 -155L1784 -167L1785 -178L1787 -189L1789 -200L1793 -210L1797 -220L1801 -230L1807 -239L1813 -248L1820 -256L1828 -264L1837 -271L1847 -278L1857 -284L1869 -290L1881 -295L1894 -300L1909 -304L1924 -308L1940 -311L1957 -313L1975 -315L1994 -316L2014 -316L2157 -316L2157 -225L2031 -225L2018 -225L2006 -224L1995 -223L1985 -221L1976 -218L1968 -215L1961 -211L1956 -207L1947 -198L1940 -187L1937 -175L1935 -162L1936 -154L1937 -148L1939 -141L1941 -135L1944 -130L1948 -124L1953 -119L1959 -115L1965 -111L1971 -107L1978 -104L1986 -101L1994 -100L2003 -98L2013 -97L2022 -97L2042 -98L2060 -102L2077 -107L2093 -115L2101 -120L2108 -126L2114 -132L2120 -138L2125 -145L2130 -153L2134 -161L2138 -170L2162 -98L2157 -85L2152 -74L2145 -63L2138 -52L2130 -43L2121 -34L2111 -27L2100 -19L2088 -13L2076 -8L2063 -3L2049 1L2034 4L2018 6L2001 7L1984 8ZM2572 7L2539 3L2506 -2L2474 -9L2458 -13L2444 -18L2430 -22L2417 -27L2405 -33L2393 -38L2382 -44L2373 -50L2425 -162L2444 -151L2465 -141L2488 -132L2512 -124L2537 -118L2562 -114L2587 -111L2612 -110L2625 -110L2637 -111L2648 -112L2658 -113L2667 -115L2675 -118L2683 -120L2689 -123L2694 -127L2699 -130L2702 -134L2706 -139L2708 -143L2710 -148L2711 -154L2711 -159L2710 -168L2707 -176L2701 -182L2694 -188L2684 -192L2673 -196L2661 -199L2647 -202L2617 -207L2584 -212L2549 -218L2514 -226L2497 -231L2481 -236L2465 -243L2450 -251L2436 -260L2424 -271L2413 -283L2404 -297L2400 -305L2396 -313L2393 -321L2390 -330L2389 -340L2387 -350L2386 -361L2386 -372L2387 -385L2388 -397L2390 -409L2393 -420L2398 -431L2403 -442L2409 -452L2416 -462L2424 -472L2432 -481L2442 -489L2452 -497L2463 -504L2475 -511L2488 -518L2501 -523L2515 -529L2530 -533L2546 -537L2562 -540L2579 -542L2597 -544L2615 -545L2635 -546L2663 -545L2691 -543L2719 -539L2747 -534L2774 -527L2799 -519L2822 -510L2842 -499L2790 -388L2770 -398L2751 -407L2731 -414L2711 -419L2692 -423L2673 -426L2654 -427L2635 -428L2623 -428L2611 -427L2600 -426L2590 -424L2581 -422L2572 -420L2565 -417L2559 -414L2548 -406L2541 -398L2536 -388L2535 -378L2536 -369L2539 -361L2545 -354L2552 -348L2562 -343L2573 -339L2585 -335L2599 -332L2629 -327L2662 -322L2697 -316L2732 -308L2749 -303L2765 -297L2781 -290L2795 -283L2809 -274L2822 -263L2832 -251L2842 -237L2846 -230L2850 -222L2853 -213L2855 -204L2857 -195L2858 -185L2859 -174L2860 -163L2859 -151L2858 -139L2855 -127L2852 -116L2848 -105L2843 -95L2837 -85L2830 -75L2822 -65L2813 -57L2804 -48L2793 -40L2782 -33L2770 -26L2757 -20L2743 -14L2729 -9L2713 -5L2697 -1L2681 2L2663 5L2645 6L2625 7L2606 8ZM3161 200L3124 197L3088 191L3052 183L3035 178L3019 173L3003 167L2988 160L2973 153L2960 145L2947 137L2935 128L2997 16L3015 29L3036 41L3058 51L3083 60L3109 68L3136 73L3162 76L3187 77L3207 76L3226 75L3243 72L3259 68L3273 63L3286 56L3298 49L3308 40L3316 30L3324 19L3331 7L3336 -6L3340 -20L3343 -36L3345 -52L3345 -70L3345 -151L3355 -286L3353 -422L3353 -538L3501 -538L3501 -90L3501 -71L3500 -54L3498 -36L3496 -20L3494 -4L3490 11L3486 26L3482 40L3476 54L3471 66L3464 79L3457 90L3449 101L3441 112L3432 121L3423 131L3413 139L3402 147L3391 155L3379 162L3367 168L3355 174L3341 179L3328 184L3313 188L3299 192L3283 195L3268 197L3251 199L3234 200L3217 201L3199 202ZM3156 -26L3139 -28L3121 -30L3104 -34L3087 -38L3071 -44L3055 -51L3040 -58L3025 -67L3011 -76L2997 -86L2985 -97L2973 -109L2962 -122L2952 -135L2943 -149L2934 -164L2927 -180L2921 -196L2915 -213L2912 -230L2909 -248L2907 -267L2906 -286L2907 -305L2909 -324L2912 -342L2915 -360L2921 -376L2927 -393L2934 -408L2943 -423L2952 -437L2962 -451L2973 -463L2985 -475L2997 -486L3011 -496L3025 -505L3040 -514L3055 -521L3071 -528L3087 -533L3104 -538L3121 -541L3139 -544L3156 -545L3175 -546L3192 -545L3208 -544L3224 -542L3239 -539L3254 -535L3268 -530L3282 -525L3295 -518L3308 -511L3319 -503L3331 -493L3341 -483L3351 -472L3360 -460L3368 -447L3376 -433L3383 -418L3389 -402L3394 -385L3398 -368L3401 -349L3403 -329L3405 -308L3405 -286L3405 -264L3403 -243L3401 -224L3398 -205L3394 -187L3389 -170L3383 -154L3376 -139L3368 -125L3360 -112L3351 -100L3341 -89L3331 -79L3319 -69L3308 -61L3295 -54L3282 -47L3268 -41L3254 -37L3239 -33L3224 -30L3208 -28L3192 -26L3175 -26ZM3226 -155L3245 -158L3263 -163L3279 -170L3294 -179L3308 -190L3319 -203L3329 -217L3337 -232L3343 -249L3346 -267L3347 -286L3346 -305L3343 -323L3337 -340L3329 -356L3319 -370L3308 -382L3294 -393L3279 -402L3263 -409L3245 -414L3226 -417L3206 -418L3186 -417L3167 -414L3150 -409L3133 -402L3118 -393L3104 -382L3092 -370L3082 -356L3075 -340L3069 -323L3065 -305L3064 -286L3065 -267L3069 -249L3075 -232L3082 -217L3092 -203L3104 -190L3118 -179L3133 -170L3150 -163L3167 -158L3186 -155L3206 -154ZM3870 7L3850 5L3830 3L3811 -1L3792 -6L3774 -12L3756 -20L3740 -28L3723 -37L3708 -47L3694 -59L3680 -70L3667 -83L3656 -97L3645 -111L3635 -126L3626 -142L3618 -159L3611 -176L3606 -193L3602 -211L3599 -230L3597 -249L3596 -269L3597 -289L3599 -309L3602 -327L3606 -346L3611 -363L3618 -380L3626 -397L3635 -413L3645 -428L3656 -442L3668 -455L3680 -468L3694 -480L3708 -491L3723 -501L3740 -510L3756 -518L3774 -526L3792 -532L3811 -537L3830 -541L3850 -543L3870 -545L3892 -546L3913 -545L3933 -543L3953 -541L3973 -537L3991 -532L4010 -526L4027 -518L4044 -510L4060 -501L4076 -491L4090 -480L4104 -468L4116 -456L4128 -442L4139 -428L4149 -413L4158 -397L4165 -380L4172 -363L4177 -346L4181 -328L4184 -309L4186 -289L4187 -269L4186 -249L4184 -230L4181 -211L4177 -193L4172 -176L4165 -158L4158 -142L4149 -126L4139 -111L4128 -97L4116 -83L4104 -70L4090 -58L4076 -47L4060 -37L4044 -28L4027 -20L4009 -12L3991 -6L3972 -1L3953 3L3933 5L3913 7L3892 8ZM3911 -121L3929 -125L3946 -130L3962 -138L3977 -148L3990 -160L4001 -174L4011 -189L4019 -207L4024 -226L4028 -247L4029 -269L4028 -292L4024 -313L4019 -332L4011 -349L4001 -365L3990 -378L3977 -390L3962 -400L3946 -408L3929 -413L3911 -417L3892 -418L3873 -417L3855 -413L3838 -408L3822 -400L3807 -390L3794 -378L3783 -365L3773 -349L3765 -332L3759 -313L3755 -292L3754 -269L3755 -247L3759 -226L3765 -207L3773 -189L3783 -174L3794 -160L3807 -148L3822 -138L3838 -130L3855 -125L3873 -121L3892 -120ZM4201 -538L4362 -538L4550 -75L4470 -75L4665 -538L4815 -538L4588 -0L4427 -0Z"/>
    <path fill="#4FC3E8" transform="translate(4807.0 0)" d="M72 -538L221 -538L221 -386L200 -430L207 -444L214 -457L222 -469L231 -480L242 -490L252 -500L264 -508L277 -516L291 -523L305 -529L320 -534L336 -538L352 -541L370 -544L388 -545L406 -546L406 -402L397 -403L388 -404L371 -404L356 -404L341 -402L326 -399L313 -395L300 -390L289 -384L278 -376L267 -368L258 -358L250 -347L244 -334L238 -321L234 -306L231 -290L229 -272L228 -254L228 -0L72 -0Z"/>
  </g>

  <!-- bordas -->
  <path d="M300.00 6.00L594.80 176.21L594.80 516.62L300.00 686.82L5.20 516.62L5.20 176.21Z" fill="none" stroke="#05172A" stroke-width="12"/>
  <path d="M300.00 18.00L584.41 182.21L584.41 510.62L300.00 674.82L15.59 510.62L15.59 182.21Z" fill="none" stroke="#4FC3E8" stroke-width="4"/>
</svg>
