<?xml version="1.0" encoding="UTF-8"?>
<svg xmlns="http://www.w3.org/2000/svg" viewBox="0 0 600 692.82" role="img" aria-label="obrasgovr">
  <path d="M300.00 0.00L600.00 173.21L600.00 519.62L300.00 692.82L0.00 519.62L0.00 173.21Z" fill="#0A2540"/>
  <g fill="#FFFFFF" fill-rule="evenodd">
    <path d="M80.0 341.0H520.0V489.0H80.0ZM111.0 489.0V419.0A52.7 52.7 0 0 1 216.3 419.0V489.0ZM247.3 489.0V419.0A52.7 52.7 0 0 1 352.7 419.0V489.0ZM383.7 489.0V419.0A52.7 52.7 0 0 1 489.0 419.0V489.0Z"/>
    <path d="M80.0 237.0H520.0V341.0H80.0ZM98.0 341.0V296.0A26.2 26.2 0 0 1 150.3 296.0V341.0ZM168.3 341.0V296.0A26.2 26.2 0 0 1 220.7 296.0V341.0ZM238.7 341.0V296.0A26.2 26.2 0 0 1 291.0 296.0V341.0ZM309.0 341.0V296.0A26.2 26.2 0 0 1 361.3 296.0V341.0ZM379.3 341.0V296.0A26.2 26.2 0 0 1 431.7 296.0V341.0ZM449.7 341.0V296.0A26.2 26.2 0 0 1 502.0 296.0V341.0Z"/>
    <path d="M70 203H530V237H70Z"/>
  </g>
  <path d="M70 496H530" stroke="#F5B841" stroke-width="11" stroke-linecap="round"/>
  <path d="M300.00 7.00L593.94 176.71L593.94 516.12L300.00 685.82L6.06 516.12L6.06 176.71Z" fill="none" stroke="#05172A" stroke-width="14"/>
  <path d="M300.00 20.00L582.68 183.21L582.68 509.62L300.00 672.82L17.32 509.62L17.32 183.21Z" fill="none" stroke="#4FC3E8" stroke-width="6"/>
</svg>
